<svg width="1000" height="1000" viewBox="0 0 1000 1000" fill="none" xmlns="http://www.w3.org/2000/svg">
<circle cx="500" cy="500" r="500" fill="#5FA9C9"/>
<path fill-rule="evenodd" clip-rule="evenodd" d="M547 615.727C547 615.727 547 715.147 547 740C547 764.853 526.853 785 502 785C477.147 785 457 764.853 457 740V591.253L490.5 569.5L547 615.727ZM479 732C474.582 732 471 735.582 471 740V749C471 753.418 474.582 757 479 757C483.418 757 487 753.418 487 749V740C487 735.582 483.418 732 479 732ZM479 602C474.582 602 471 605.582 471 610C471 614.417 471 715.941 471 716C471 720.418 474.582 724 479 724C483.418 724 487 720.418 487 716V610C487 605.582 483.418 602 479 602Z" fill="white"/>
<path fill-rule="evenodd" clip-rule="evenodd" d="M465 395C469.418 395 473 398.582 473 403V422.312L533.649 400.747C540.159 398.433 547 403.26 547 410.169V502.708L503 521.5L457 503.873V403C457 398.582 460.582 395 465 395ZM512.5 479C508.358 479 505 482.358 505 486.5C505 490.642 508.358 494 512.5 494C516.642 494 520 490.642 520 486.5C520 482.358 516.642 479 512.5 479ZM489.5 442C482.597 442 477 447.597 477 454.5C477 461.404 482.596 467 489.5 467C496.404 467 502 461.404 502 454.5C502 447.597 496.403 442 489.5 442ZM524.5 424C520.358 424 517 427.358 517 431.5C517 435.642 520.358 439 524.5 439C528.642 439 532 435.642 532 431.5C532 427.358 528.642 424 524.5 424Z" fill="white"/>
<path d="M473 378C473 382.418 469.418 386 465 386C460.582 386 457 382.418 457 378V344H473V378Z" fill="white"/>
<path d="M435 404C416 404 393.5 425.5 393.5 449.5C393.5 473.5 435 493 435 493M435 404V493M435 404V372.25M435 493C454.5 502 537.688 536.745 570 559C585.927 572.045 591.896 583.475 593.5 604C595.307 627.136 581.667 650.833 570 653M570 653L568 644C560.711 614.574 491.5 572.457 491.5 572.457M570 653V739.5C570 776.779 539.779 807 502.5 807C465.221 807 435 776.779 435 739.5V656M442 550.5C442 550.5 402.48 586.374 407 614.5C410.102 633.803 435 656 435 656M435 656C435 656 435 623 439.5 609.5C444.167 595.5 470.82 578.394 491.5 572.457M491.5 572.457C471 561 435 548 435 548C389.483 528.655 370.635 507.998 361.023 489C349.519 466.259 352.546 445.894 356.5 433C363.142 411.338 375.3 397.9 392.5 387.5C409.7 377.1 428 373 435 372.25M435 336H570C570 336 570 410.9 570 495M435 336V372.25M435 336H420C415.582 336 412 332.418 412 328V314C412 309.582 415.582 306 420 306H584C588.418 306 592 309.582 592 314V328C592 332.418 588.418 336 584 336H569M301.406 398C298.569 384.958 297.5 371.403 297.5 358L138.962 358C119.732 358 102.207 346.972 93.8856 329.637L89.5 320.5H333C333 320.5 326.646 387.5 357.646 429.5M301.406 398C304.46 412.038 309.562 425.482 317.584 437.5M301.406 398H186.367C166.672 398 148.812 386.438 140.749 368.47L136.5 358M317.584 437.5C325.464 449.305 339.923 461.234 354.262 469.5M317.584 437.5H281.059M281.059 437.5H225.823C203.617 437.5 184.934 419.837 182.074 397.816M281.059 437.5L281 437.346M281.059 437.5L284.077 445.385C298.866 480.879 332.166 504 370.618 504M699.094 399.5C701.931 386.458 703 372.903 703 359.5L861.538 359.5C880.768 359.5 898.293 348.472 906.614 331.137L911 322H667.5C667.5 322 678.5 386.448 647.5 428.448M699.094 399.5C696.04 413.538 690.938 426.982 682.916 439M699.094 399.5H814.133C833.828 399.5 851.688 387.938 859.751 369.97L864 359.5M682.916 439C675.036 450.805 664.339 461.234 650 469.5M682.916 439H719.441M719.441 439H774.677C796.883 439 815.566 421.337 818.426 399.316M719.441 439L719.5 438.846M719.441 439L716.423 446.885C701.634 482.379 669.272 505.5 630.819 505.5" stroke="white" stroke-width="16"/>
<path d="M561.851 553.756C564.438 552.482 567.167 551.125 570 549.68" stroke="white" stroke-width="16"/>
<path d="M570 549.68C603.839 532.416 652.5 502.52 652.5 449C652.5 409.472 594.5 374 570 374" stroke="white" stroke-width="16"/>
<path d="M499.794 522C527.431 513.561 551.35 504.321 570 494.768" stroke="white" stroke-width="16"/>
<path d="M570 494.768C595.55 481.681 611.212 468.006 613 455C616.094 432.5 594 411.5 570 411.5" stroke="white" stroke-width="16"/>
</svg>
