<svg width="18" height="20" viewBox="0 0 18 20" fill="none" xmlns="http://www.w3.org/2000/svg">
<path d="M6.00012 15V16C6.00012 16.7956 6.31619 17.5587 6.8788 18.1213C7.44141 18.6839 8.20447 19 9.00012 19C9.79577 19 10.5588 18.6839 11.1214 18.1213C11.6841 17.5587 12.0001 16.7956 12.0001 16V15M7.00012 3C7.00012 2.46957 7.21084 1.96086 7.58591 1.58579C7.96098 1.21071 8.46969 1 9.00012 1C9.53056 1 10.0393 1.21071 10.4143 1.58579C10.7894 1.96086 11.0001 2.46957 11.0001 3C12.1485 3.54303 13.1275 4.38833 13.8322 5.4453C14.5368 6.50227 14.9406 7.73107 15.0001 9V12C15.0754 12.6217 15.2956 13.2171 15.6429 13.7381C15.9903 14.2592 16.4552 14.6914 17.0001 15H1.00012C1.54506 14.6914 2.00993 14.2592 2.35731 13.7381C2.70469 13.2171 2.92487 12.6217 3.00012 12V9C3.05968 7.73107 3.46342 6.50227 4.16807 5.4453C4.87272 4.38833 5.85171 3.54303 7.00012 3Z" stroke="currentColor" stroke-width="2" stroke-linecap="round" stroke-linejoin="round"/>
</svg>
