<svg width="20" height="17" viewBox="0 0 20 17" fill="none" xmlns="http://www.w3.org/2000/svg">
<path d="M7 5V4C7 3.20435 7.31607 2.44129 7.87868 1.87868C8.44129 1.31607 9.20435 1 10 1C10.7956 1 11.5587 1.31607 12.1213 1.87868C12.6839 2.44129 13 3.20435 13 4V5M10 16C11.3261 16 12.5979 15.4732 13.5355 14.5355C14.4732 13.5979 15 12.3261 15 11V8C14.9409 6.92857 14.5956 5.89259 14 5H6C5.4044 5.89259 5.05907 6.92857 5 8V11C5 12.3261 5.52678 13.5979 6.46447 14.5355C7.40215 15.4732 8.67392 16 10 16ZM10 16V10M1 9H5M15 9H19M2 15L5.35 13M18 15L14.65 13M2 3L5.75 5.4M18 3L14.25 5.4" stroke="currentColor" stroke-width="2" stroke-linecap="round" stroke-linejoin="round"/>
</svg>
