<svg width="240" height="240" viewBox="0 0 240 240" fill="none" xmlns="http://www.w3.org/2000/svg">
<circle cx="120" cy="120" r="120" fill="#5FA9C9"/>
<path fill-rule="evenodd" clip-rule="evenodd" d="M131.28 147.774C131.28 147.774 131.28 171.635 131.28 177.6C131.28 183.565 126.445 188.4 120.48 188.4C114.515 188.4 109.68 183.565 109.68 177.6V141.901L117.72 136.68L131.28 147.774ZM114.96 175.68C113.9 175.68 113.04 176.54 113.04 177.6V179.76C113.04 180.82 113.9 181.68 114.96 181.68C116.02 181.68 116.88 180.82 116.88 179.76V177.6C116.88 176.54 116.02 175.68 114.96 175.68ZM114.96 144.48C113.9 144.48 113.04 145.34 113.04 146.4C113.04 147.46 113.04 171.826 113.04 171.84C113.04 172.9 113.9 173.76 114.96 173.76C116.02 173.76 116.88 172.9 116.88 171.84V146.4C116.88 145.34 116.02 144.48 114.96 144.48Z" fill="white"/>
<path fill-rule="evenodd" clip-rule="evenodd" d="M111.6 94.8001C112.66 94.8001 113.52 95.6597 113.52 96.7201V101.355L128.076 96.1794C129.638 95.6239 131.28 96.7824 131.28 98.4406V120.65L120.72 125.16L109.68 120.93V96.7201C109.68 95.6597 110.54 94.8001 111.6 94.8001ZM123 114.96C122.006 114.96 121.2 115.766 121.2 116.76C121.2 117.754 122.006 118.56 123 118.56C123.994 118.56 124.8 117.754 124.8 116.76C124.8 115.766 123.994 114.96 123 114.96ZM117.48 106.08C115.823 106.08 114.48 107.423 114.48 109.08C114.48 110.737 115.823 112.08 117.48 112.08C119.137 112.08 120.48 110.737 120.48 109.08C120.48 107.423 119.137 106.08 117.48 106.08ZM125.88 101.76C124.886 101.76 124.08 102.566 124.08 103.56C124.08 104.554 124.886 105.36 125.88 105.36C126.874 105.36 127.68 104.554 127.68 103.56C127.68 102.566 126.874 101.76 125.88 101.76Z" fill="white"/>
<path d="M113.52 90.7201C113.52 91.7804 112.66 92.6401 111.6 92.6401C110.54 92.6401 109.68 91.7804 109.68 90.7201V82.5601H113.52V90.7201Z" fill="white"/>
<path d="M104.4 96.9599C99.84 96.9599 94.44 102.12 94.44 107.88C94.44 113.64 104.4 118.32 104.4 118.32M104.4 96.9599V118.32M104.4 96.9599V89.3399M104.4 118.32C109.08 120.48 129.045 128.819 136.8 134.16M136.8 134.16C140.623 137.291 142.055 140.034 142.44 144.96C142.874 150.513 139.6 156.2 136.8 156.72M136.8 134.16C136.8 113.259 136.8 80.6399 136.8 80.6399H104.4M136.8 156.72C136.8 156.72 137.334 158.654 136.32 154.56C134.571 147.498 117.96 137.39 117.96 137.39M136.8 156.72V177.48C136.8 186.427 129.547 193.68 120.6 193.68C111.653 193.68 104.4 186.427 104.4 177.48V157.44M106.08 132.12C106.08 132.12 96.5951 140.73 97.68 147.48C98.4245 152.113 104.4 157.44 104.4 157.44M104.4 157.44C104.4 157.44 104.4 149.52 105.48 146.28C106.6 142.92 112.997 138.815 117.96 137.39M117.96 137.39C113.04 134.64 104.4 131.52 104.4 131.52C93.4759 126.877 88.9523 121.92 86.6456 117.36C83.8845 111.902 84.6111 107.015 85.56 103.92C87.1542 98.721 90.0719 95.4959 94.2 92.9999C98.328 90.5039 102.72 89.5199 104.4 89.3399M104.4 80.6399V89.3399M104.4 80.6399H100.8C99.7396 80.6399 98.88 79.7803 98.88 78.7199V75.3599C98.88 74.2996 99.7396 73.4399 100.8 73.4399H140.16C141.22 73.4399 142.08 74.2996 142.08 75.3599V78.7199C142.08 79.7803 141.22 80.6399 140.16 80.6399H136.56M72.3375 95.5199C71.6566 92.3899 71.4 89.1366 71.4 85.9199L33.3508 85.9199C28.7357 85.9199 24.5296 83.2733 22.5325 79.1127L21.48 76.9199H79.92C79.92 76.9199 78.395 92.9999 85.835 103.08M72.3375 95.5199C73.0704 98.8892 74.295 102.116 76.2202 105M72.3375 95.5199H44.7281C40.0013 95.5199 35.7149 92.7451 33.7798 88.4326L32.76 85.9199M76.2202 105C78.1113 107.833 81.5814 110.696 85.0229 112.68M76.2202 105H67.4542M67.4542 105H54.1976C48.8681 105 44.3842 100.761 43.6978 95.4758M67.4542 105L67.44 104.963M67.4542 105L68.1784 106.892C71.7279 115.411 79.7198 120.96 88.9484 120.96M119.95 125.28C135.67 120.48 146.377 114.6 147.12 109.2C147.862 103.8 142.56 98.7599 136.8 98.7599M134.844 132.901C142.884 128.941 156.6 121.68 156.6 107.76C156.6 98.2731 142.68 89.7599 136.8 89.7599M167.782 95.8799C168.463 92.7499 168.72 89.4966 168.72 86.2799L206.769 86.2799C211.384 86.2799 215.59 83.6333 217.587 79.4727L218.64 77.2799H160.2C160.2 77.2799 162.84 92.7475 155.4 102.828M167.782 95.8799C167.05 99.2492 165.825 102.476 163.9 105.36M167.782 95.8799H195.392C200.119 95.8799 204.405 93.1051 206.34 88.7926L207.36 86.2799M163.9 105.36C162.009 108.193 159.441 110.696 156 112.68M163.9 105.36H172.666M172.666 105.36H185.922C191.252 105.36 195.736 101.121 196.422 95.8358M172.666 105.36L172.68 105.323M172.666 105.36L171.942 107.252C168.392 115.771 160.625 121.32 151.397 121.32" stroke="white" stroke-width="4"/>
</svg>
