<svg width="150" height="150" viewBox="0 0 150 150" fill="none" xmlns="http://www.w3.org/2000/svg">
<circle cx="75" cy="75" r="75" fill="#5FA9C9"/>
<path fill-rule="evenodd" clip-rule="evenodd" d="M82.05 92.359C82.05 92.359 82.0501 107.272 82.05 111C82.05 114.728 79.028 117.75 75.3 117.75C71.5721 117.75 68.55 114.728 68.55 111V88.6879L73.575 85.425L82.05 92.359ZM71.85 109.8C71.1873 109.8 70.6501 110.337 70.65 111V112.35C70.65 113.013 71.1873 113.55 71.85 113.55C72.5128 113.55 73.05 113.013 73.05 112.35V111C73.05 110.337 72.5128 109.8 71.85 109.8ZM71.85 90.3C71.1873 90.3 70.6501 90.8373 70.65 91.5C70.65 92.1625 70.65 107.391 70.65 107.4C70.65 108.063 71.1873 108.6 71.85 108.6C72.5128 108.6 73.05 108.063 73.05 107.4V91.5C73.05 90.8373 72.5128 90.3 71.85 90.3Z" fill="white"/>
<path fill-rule="evenodd" clip-rule="evenodd" d="M69.75 59.25C70.4128 59.25 70.95 59.7872 70.95 60.45V63.3467L80.0475 60.112C81.024 59.7649 82.05 60.4889 82.05 61.5253V75.4062L75.45 78.225L68.55 75.5809V60.45C68.55 59.7872 69.0873 59.25 69.75 59.25ZM76.875 71.85C76.2537 71.85 75.7501 72.3537 75.75 72.975C75.75 73.5963 76.2537 74.1 76.875 74.1C77.4964 74.1 78 73.5963 78 72.975C78 72.3537 77.4964 71.85 76.875 71.85ZM73.425 66.3C72.3895 66.3 71.5501 67.1395 71.55 68.175C71.55 69.2105 72.3895 70.05 73.425 70.05C74.4606 70.05 75.3 69.2105 75.3 68.175C75.3 67.1395 74.4606 66.3 73.425 66.3ZM78.675 63.6C78.0537 63.6 77.5501 64.1037 77.55 64.725C77.55 65.3463 78.0537 65.85 78.675 65.85C79.2964 65.85 79.8 65.3463 79.8 64.725C79.8 64.1037 79.2964 63.6 78.675 63.6Z" fill="white"/>
<path d="M70.95 56.7C70.95 57.3627 70.4128 57.9 69.75 57.9C69.0873 57.9 68.55 57.3627 68.55 56.7V51.6H70.95V56.7Z" fill="white"/>
<path d="M65.25 60.6C62.4 60.6 59.025 63.825 59.025 67.425C59.025 71.025 65.25 73.95 65.25 73.95M65.25 60.6V73.95M65.25 60.6V55.8375M65.25 73.95C68.175 75.3 80.6532 80.5117 85.5 83.85C87.8891 85.8068 88.7845 87.5212 89.025 90.6C89.2961 94.0704 87.25 97.625 85.5 97.95M85.5 97.95L85.2 96.6C84.1067 92.1861 73.7251 85.8686 73.7251 85.8686M85.5 97.95V110.925C85.5 116.517 80.9669 121.05 75.375 121.05C69.7832 121.05 65.25 116.517 65.25 110.925V98.4M66.3001 82.575C66.3001 82.575 60.372 87.9561 61.0501 92.175C61.5154 95.0705 65.25 98.4 65.25 98.4M65.25 98.4C65.25 98.4 65.25 93.45 65.9251 91.425C66.6251 89.325 70.623 86.7591 73.7251 85.8686M73.7251 85.8686C70.6501 84.15 65.25 82.2 65.25 82.2C58.4225 79.2983 55.5953 76.1998 54.1536 73.35C52.4279 69.9389 52.882 66.8842 53.4751 64.95C54.4714 61.7007 56.295 59.685 58.875 58.125C61.455 56.565 64.2 55.95 65.25 55.8375M65.25 50.4H85.5C85.5 50.4 85.5 61.635 85.5 74.25M65.25 50.4V55.8375M65.25 50.4H63C62.3373 50.4 61.8001 49.8628 61.8001 49.2V47.1C61.8001 46.4373 62.3373 45.9 63 45.9H87.6001C88.2628 45.9 88.8001 46.4373 88.8001 47.1V49.2C88.8001 49.8628 88.2628 50.4 87.6001 50.4H85.3501M45.211 59.7C44.7854 57.7437 44.6251 55.7104 44.6251 53.7L20.8443 53.7C17.9599 53.7 15.3311 52.0459 14.0829 49.4455L13.425 48.075H49.9501C49.9501 48.075 48.9969 58.125 53.6469 64.425M45.211 59.7C45.6691 61.8058 46.4344 63.8223 47.6377 65.625M45.211 59.7H27.9551C25.0009 59.7 22.3219 57.9658 21.1124 55.2705L20.475 53.7M47.6377 65.625C48.8197 67.3957 50.9884 69.1851 53.1393 70.425M47.6377 65.625H42.1589M42.1589 65.625H33.8735C30.5426 65.625 27.7402 62.9756 27.3112 59.6724M42.1589 65.625L42.15 65.6019M42.1589 65.625L42.6116 66.8077C44.83 72.1319 49.8249 75.6 55.5928 75.6M104.864 59.925C105.29 57.9687 105.45 55.9354 105.45 53.925L129.231 53.925C132.115 53.925 134.744 52.2709 135.992 49.6705L136.65 48.3H100.125C100.125 48.3 101.775 57.9673 97.1251 64.2673M104.864 59.925C104.406 62.0308 103.641 64.0473 102.437 65.85M104.864 59.925H122.12C125.074 59.925 127.753 58.1908 128.963 55.4955L129.6 53.925M102.437 65.85C101.255 67.6207 99.651 69.1851 97.5001 70.425M102.437 65.85H107.916M107.916 65.85H116.202C119.532 65.85 122.335 63.2006 122.764 59.8974M107.916 65.85L107.925 65.8269M107.916 65.85L107.464 67.0327C105.245 72.3569 100.391 75.825 94.623 75.825" stroke="white" stroke-width="2.5"/>
<path d="M84.2776 83.0635C84.6657 82.8723 85.0751 82.6688 85.5 82.452" stroke="white" stroke-width="2.5"/>
<path d="M85.5 82.452C90.5758 79.8624 97.875 75.378 97.875 67.35C97.875 61.4207 89.175 56.1 85.5 56.1" stroke="white" stroke-width="2.5"/>
<path d="M74.969 78.3C79.1146 77.0342 82.7024 75.6482 85.4999 74.2152" stroke="white" stroke-width="2.5"/>
<path d="M85.5 74.2152C89.3325 72.2521 91.6818 70.2009 91.95 68.25C92.4141 64.875 89.1 61.725 85.5 61.725" stroke="white" stroke-width="2.5"/>
</svg>
